  0
SECTION
  2
HEADER
  9
$ANGBASE
  50
0.0
  9
$ANGDIR
  70
  1
  9
$MEASUREMENT
  70
0
  0
ENDSEC
  0
SECTION
  2
TABLES
  0
TABLE
  2
LTYPE
  70
4
  0
LTYPE
  5
40F
  2
CONTINUOUS
  70
0
  3
Solid line
  72
65
  73
0
  40
0.0
  0
LTYPE
  5
410
  2
DASHDOT
 70
0
  3
Dash Dot ____ _ ____ _
 72
65
 73
4
 40
2.0
 49
1.25
 49
-0.25
 49
0.25
 49
-0.25
  0
LTYPE
  5
411
  2
DASHED
 70
0
  3
Dashed __ __ __ __ __
 72
65
 73
2
 40
0.75
 49
0.5
 49
-0.25
  0
LTYPE
  5
43B
  2
DOTTED
 70
0
  3
Dotted .  .  .  .
 72
65
 73
2
 40
0.2
 49
0.0
 49
-0.2
  0
ENDTAB
  0
TABLE
  2
STYLE
  70
4
  0
STYLE
  2
KICAD
  70
0
  40
0
  41
1
  42
1
  50
0
  71
0
  3
isocp.shx
  0
STYLE
  2
KICADB
  70
0
  40
0
  41
1
  42
1
  50
0
  71
0
  3
isocp.shx
  0
STYLE
  2
KICADI
  70
0
  40
0
  41
1
  42
1
  50
15
  71
0
  3
isocp.shx
  0
STYLE
  2
KICADBI
  70
0
  40
0
  41
1
  42
1
  50
15
  71
0
  3
isocp.shx
  0
ENDTAB
  0
TABLE
  2
LAYER
  70
30
  0
LAYER
  2
BLACK
  70
0
  62
7
  6
CONTINUOUS
  0
LAYER
  2
GRAY1
  70
0
  62
251
  6
CONTINUOUS
  0
LAYER
  2
GRAY2
  70
0
  62
8
  6
CONTINUOUS
  0
LAYER
  2
GRAY3
  70
0
  62
9
  6
CONTINUOUS
  0
LAYER
  2
WHITE
  70
0
  62
7
  6
CONTINUOUS
  0
LAYER
  2
LYELLOW
  70
0
  62
51
  6
CONTINUOUS
  0
LAYER
  2
BLUE1
  70
0
  62
178
  6
CONTINUOUS
  0
LAYER
  2
GREEN1
  70
0
  62
98
  6
CONTINUOUS
  0
LAYER
  2
CYAN1
  70
0
  62
138
  6
CONTINUOUS
  0
LAYER
  2
RED1
  70
0
  62
18
  6
CONTINUOUS
  0
LAYER
  2
MAGENTA1
  70
0
  62
228
  6
CONTINUOUS
  0
LAYER
  2
BROWN1
  70
0
  62
58
  6
CONTINUOUS
  0
LAYER
  2
BLUE2
  70
0
  62
5
  6
CONTINUOUS
  0
LAYER
  2
GREEN2
  70
0
  62
3
  6
CONTINUOUS
  0
LAYER
  2
CYAN2
  70
0
  62
4
  6
CONTINUOUS
  0
LAYER
  2
RED2
  70
0
  62
1
  6
CONTINUOUS
  0
LAYER
  2
MAGENTA2
  70
0
  62
6
  6
CONTINUOUS
  0
LAYER
  2
BROWN2
  70
0
  62
54
  6
CONTINUOUS
  0
LAYER
  2
BLUE3
  70
0
  62
171
  6
CONTINUOUS
  0
LAYER
  2
GREEN3
  70
0
  62
91
  6
CONTINUOUS
  0
LAYER
  2
CYAN3
  70
0
  62
131
  6
CONTINUOUS
  0
LAYER
  2
RED3
  70
0
  62
11
  6
CONTINUOUS
  0
LAYER
  2
MAGENTA3
  70
0
  62
221
  6
CONTINUOUS
  0
LAYER
  2
YELLOW3
  70
0
  62
2
  6
CONTINUOUS
  0
LAYER
  2
BLUE4
  70
0
  62
5
  6
CONTINUOUS
  0
LAYER
  2
GREEN4
  70
0
  62
3
  6
CONTINUOUS
  0
LAYER
  2
CYAN4
  70
0
  62
4
  6
CONTINUOUS
  0
LAYER
  2
RED4
  70
0
  62
1
  6
CONTINUOUS
  0
LAYER
  2
MAGENTA4
  70
0
  62
6
  6
CONTINUOUS
  0
LAYER
  2
YELLOW4
  70
0
  62
2
  6
CONTINUOUS
  0
ENDTAB
  0
ENDSEC
  0
SECTION
  2
ENTITIES
0
LINE
8
BLACK
6
CONTINUOUS
10
259.002
20
-40.975
11
259.004
21
-40.975
0
LINE
8
BLACK
6
CONTINUOUS
10
259.004
20
-40.975
11
259.006
21
-40.9758
0
LINE
8
BLACK
6
CONTINUOUS
10
259.006
20
-40.9758
11
259.009
21
-40.9761
0
LINE
8
BLACK
6
CONTINUOUS
10
259.009
20
-40.9761
11
259.011
21
-40.9773
0
LINE
8
BLACK
6
CONTINUOUS
10
259.011
20
-40.9773
11
259.013
21
-40.978
0
LINE
8
BLACK
6
CONTINUOUS
10
259.013
20
-40.978
11
259.014
21
-40.9794
0
LINE
8
BLACK
6
CONTINUOUS
10
259.014
20
-40.9794
11
259.016
21
-40.9806
0
LINE
8
BLACK
6
CONTINUOUS
10
259.016
20
-40.9806
11
259.018
21
-40.9823
0
LINE
8
BLACK
6
CONTINUOUS
10
259.018
20
-40.9823
11
259.019
21
-40.9837
0
LINE
8
BLACK
6
CONTINUOUS
10
259.019
20
-40.9837
11
259.021
21
-40.9856
0
LINE
8
BLACK
6
CONTINUOUS
10
259.021
20
-40.9856
11
259.022
21
-40.9873
0
LINE
8
BLACK
6
CONTINUOUS
10
259.022
20
-40.9873
11
259.023
21
-40.9894
0
LINE
8
BLACK
6
CONTINUOUS
10
259.023
20
-40.9894
11
259.024
21
-40.9913
0
LINE
8
BLACK
6
CONTINUOUS
10
259.024
20
-40.9913
11
259.024
21
-40.9935
0
LINE
8
BLACK
6
CONTINUOUS
10
259.024
20
-40.9935
11
259.025
21
-40.9956
0
LINE
8
BLACK
6
CONTINUOUS
10
259.025
20
-40.9956
11
259.025
21
-40.9978
0
LINE
8
BLACK
6
CONTINUOUS
10
259.025
20
-40.9978
11
259.025
21
-40.9978
0
LINE
8
BLACK
6
CONTINUOUS
10
259.025
20
-40.9978
11
259.025
21
-80.5022
0
LINE
8
BLACK
6
CONTINUOUS
10
259.025
20
-80.5022
11
259.025
21
-80.5022
0
LINE
8
BLACK
6
CONTINUOUS
10
259.025
20
-80.5022
11
259.025
21
-80.5044
0
LINE
8
BLACK
6
CONTINUOUS
10
259.025
20
-80.5044
11
259.024
21
-80.5065
0
LINE
8
BLACK
6
CONTINUOUS
10
259.024
20
-80.5065
11
259.024
21
-80.5087
0
LINE
8
BLACK
6
CONTINUOUS
10
259.024
20
-80.5087
11
259.023
21
-80.5106
0
LINE
8
BLACK
6
CONTINUOUS
10
259.023
20
-80.5106
11
259.022
21
-80.5127
0
LINE
8
BLACK
6
CONTINUOUS
10
259.022
20
-80.5127
11
259.021
21
-80.5144
0
LINE
8
BLACK
6
CONTINUOUS
10
259.021
20
-80.5144
11
259.019
21
-80.5163
0
LINE
8
BLACK
6
CONTINUOUS
10
259.019
20
-80.5163
11
259.018
21
-80.5177
0
LINE
8
BLACK
6
CONTINUOUS
10
259.018
20
-80.5177
11
259.016
21
-80.5194
0
LINE
8
BLACK
6
CONTINUOUS
10
259.016
20
-80.5194
11
259.014
21
-80.5206
0
LINE
8
BLACK
6
CONTINUOUS
10
259.014
20
-80.5206
11
259.013
21
-80.522
0
LINE
8
BLACK
6
CONTINUOUS
10
259.013
20
-80.522
11
259.011
21
-80.5227
0
LINE
8
BLACK
6
CONTINUOUS
10
259.011
20
-80.5227
11
259.009
21
-80.5239
0
LINE
8
BLACK
6
CONTINUOUS
10
259.009
20
-80.5239
11
259.006
21
-80.5242
0
LINE
8
BLACK
6
CONTINUOUS
10
259.006
20
-80.5242
11
259.004
21
-80.525
0
LINE
8
BLACK
6
CONTINUOUS
10
259.004
20
-80.525
11
259.002
21
-80.525
0
LINE
8
BLACK
6
CONTINUOUS
10
259.002
20
-80.525
11
259.002
21
-80.525
0
LINE
8
BLACK
6
CONTINUOUS
10
259.002
20
-80.525
11
39.4978
21
-80.525
0
LINE
8
BLACK
6
CONTINUOUS
10
39.4978
20
-80.525
11
39.4978
21
-80.525
0
LINE
8
BLACK
6
CONTINUOUS
10
39.4978
20
-80.525
11
39.4956
21
-80.525
0
LINE
8
BLACK
6
CONTINUOUS
10
39.4956
20
-80.525
11
39.4935
21
-80.5242
0
LINE
8
BLACK
6
CONTINUOUS
10
39.4935
20
-80.5242
11
39.4913
21
-80.5239
0
LINE
8
BLACK
6
CONTINUOUS
10
39.4913
20
-80.5239
11
39.4894
21
-80.5227
0
LINE
8
BLACK
6
CONTINUOUS
10
39.4894
20
-80.5227
11
39.4873
21
-80.522
0
LINE
8
BLACK
6
CONTINUOUS
10
39.4873
20
-80.522
11
39.4856
21
-80.5206
0
LINE
8
BLACK
6
CONTINUOUS
10
39.4856
20
-80.5206
11
39.4837
21
-80.5194
0
LINE
8
BLACK
6
CONTINUOUS
10
39.4837
20
-80.5194
11
39.4823
21
-80.5177
0
LINE
8
BLACK
6
CONTINUOUS
10
39.4823
20
-80.5177
11
39.4806
21
-80.5163
0
LINE
8
BLACK
6
CONTINUOUS
10
39.4806
20
-80.5163
11
39.4794
21
-80.5144
0
LINE
8
BLACK
6
CONTINUOUS
10
39.4794
20
-80.5144
11
39.478
21
-80.5127
0
LINE
8
BLACK
6
CONTINUOUS
10
39.478
20
-80.5127
11
39.4773
21
-80.5106
0
LINE
8
BLACK
6
CONTINUOUS
10
39.4773
20
-80.5106
11
39.4761
21
-80.5087
0
LINE
8
BLACK
6
CONTINUOUS
10
39.4761
20
-80.5087
11
39.4758
21
-80.5065
0
LINE
8
BLACK
6
CONTINUOUS
10
39.4758
20
-80.5065
11
39.475
21
-80.5044
0
LINE
8
BLACK
6
CONTINUOUS
10
39.475
20
-80.5044
11
39.475
21
-80.5022
0
LINE
8
BLACK
6
CONTINUOUS
10
39.475
20
-80.5022
11
39.475
21
-80.5022
0
LINE
8
BLACK
6
CONTINUOUS
10
39.475
20
-80.5022
11
39.475
21
-40.9978
0
LINE
8
BLACK
6
CONTINUOUS
10
39.475
20
-40.9978
11
39.475
21
-40.9956
0
LINE
8
BLACK
6
CONTINUOUS
10
39.475
20
-40.9956
11
39.4758
21
-40.9935
0
LINE
8
BLACK
6
CONTINUOUS
10
39.4758
20
-40.9935
11
39.4761
21
-40.9913
0
LINE
8
BLACK
6
CONTINUOUS
10
39.4761
20
-40.9913
11
39.4773
21
-40.9894
0
LINE
8
BLACK
6
CONTINUOUS
10
39.4773
20
-40.9894
11
39.478
21
-40.9873
0
LINE
8
BLACK
6
CONTINUOUS
10
39.478
20
-40.9873
11
39.4794
21
-40.9856
0
LINE
8
BLACK
6
CONTINUOUS
10
39.4794
20
-40.9856
11
39.4806
21
-40.9837
0
LINE
8
BLACK
6
CONTINUOUS
10
39.4806
20
-40.9837
11
39.4823
21
-40.9823
0
LINE
8
BLACK
6
CONTINUOUS
10
39.4823
20
-40.9823
11
39.4837
21
-40.9806
0
LINE
8
BLACK
6
CONTINUOUS
10
39.4837
20
-40.9806
11
39.4856
21
-40.9794
0
LINE
8
BLACK
6
CONTINUOUS
10
39.4856
20
-40.9794
11
39.4873
21
-40.978
0
LINE
8
BLACK
6
CONTINUOUS
10
39.4873
20
-40.978
11
39.4894
21
-40.9773
0
LINE
8
BLACK
6
CONTINUOUS
10
39.4894
20
-40.9773
11
39.4913
21
-40.9761
0
LINE
8
BLACK
6
CONTINUOUS
10
39.4913
20
-40.9761
11
39.4935
21
-40.9758
0
LINE
8
BLACK
6
CONTINUOUS
10
39.4935
20
-40.9758
11
39.4956
21
-40.975
0
LINE
8
BLACK
6
CONTINUOUS
10
39.4956
20
-40.975
11
39.4978
21
-40.975
0
LINE
8
BLACK
6
CONTINUOUS
10
39.4978
20
-40.975
11
39.4978
21
-40.975
0
LINE
8
BLACK
6
CONTINUOUS
10
39.4978
20
-40.975
11
259.002
21
-40.975
0
LINE
8
BLACK
6
CONTINUOUS
10
259.002
20
-40.975
11
259.002
21
-40.975
0
LINE
8
BLACK
6
CONTINUOUS
10
39.525
20
-41.025
11
39.525
21
-80.475
0
LINE
8
BLACK
6
CONTINUOUS
10
39.525
20
-80.475
11
258.975
21
-80.475
0
LINE
8
BLACK
6
CONTINUOUS
10
258.975
20
-80.475
11
258.975
21
-41.025
0
LINE
8
BLACK
6
CONTINUOUS
10
258.975
20
-41.025
11
39.525
21
-41.025
  0
ENDSEC
  0
EOF
