G04 #@! TF.GenerationSoftware,KiCad,Pcbnew,(6.0.0-rc1-dev-557-ge985f797c)*
G04 #@! TF.CreationDate,2021-03-05T01:29:39+01:00*
G04 #@! TF.ProjectId,16seg_Module,31367365675F4D6F64756C652E6B6963,1.0*
G04 #@! TF.SameCoordinates,Original*
G04 #@! TF.FileFunction,Paste,Top*
G04 #@! TF.FilePolarity,Positive*
%FSLAX46Y46*%
G04 Gerber Fmt 4.6, Leading zero omitted, Abs format (unit mm)*
G04 Created by KiCad (PCBNEW (6.0.0-rc1-dev-557-ge985f797c)) date 03/05/21 01:29:39*
%MOMM*%
%LPD*%
G01*
G04 APERTURE LIST*
%ADD10R,5.000000X1.000000*%
%ADD11R,1.500000X0.450000*%
%ADD12R,2.400000X5.160000*%
%ADD13R,1.100000X0.400000*%
%ADD14R,1.950000X0.600000*%
%ADD15R,0.900000X0.500000*%
%ADD16R,0.500000X0.900000*%
%ADD17R,0.800000X0.750000*%
%ADD18R,0.750000X0.800000*%
%ADD19R,2.550000X2.700000*%
G04 APERTURE END LIST*
D10*
G04 #@! TO.C,J2*
X56810000Y-74040000D03*
X49190000Y-74040000D03*
X56810000Y-71500000D03*
X49190000Y-71500000D03*
X56810000Y-68960000D03*
X49190000Y-68960000D03*
G04 #@! TD*
D11*
G04 #@! TO.C,U10*
X248450000Y-50275000D03*
X248450000Y-49625000D03*
X248450000Y-48975000D03*
X248450000Y-48325000D03*
X248450000Y-47675000D03*
X248450000Y-47025000D03*
X248450000Y-46375000D03*
X248450000Y-45725000D03*
X242550000Y-45725000D03*
X242550000Y-46375000D03*
X242550000Y-47025000D03*
X242550000Y-47675000D03*
X242550000Y-48325000D03*
X242550000Y-48975000D03*
X242550000Y-49625000D03*
X242550000Y-50275000D03*
G04 #@! TD*
D10*
G04 #@! TO.C,J3*
X249310000Y-74040000D03*
X241690000Y-74040000D03*
X249310000Y-71500000D03*
X241690000Y-71500000D03*
X249310000Y-68960000D03*
X241690000Y-68960000D03*
G04 #@! TD*
D12*
G04 #@! TO.C,U18*
X53000000Y-58500000D03*
D13*
X50150000Y-54925000D03*
X50150000Y-55575000D03*
X50150000Y-56225000D03*
X50150000Y-56875000D03*
X50150000Y-57525000D03*
X50150000Y-58175000D03*
X50150000Y-58825000D03*
X50150000Y-59475000D03*
X50150000Y-60125000D03*
X50150000Y-60775000D03*
X50150000Y-61425000D03*
X50150000Y-62075000D03*
X55850000Y-62075000D03*
X55850000Y-61425000D03*
X55850000Y-60775000D03*
X55850000Y-60125000D03*
X55850000Y-59475000D03*
X55850000Y-58825000D03*
X55850000Y-58175000D03*
X55850000Y-57525000D03*
X55850000Y-56875000D03*
X55850000Y-56225000D03*
X55850000Y-55575000D03*
X55850000Y-54925000D03*
G04 #@! TD*
D12*
G04 #@! TO.C,U17*
X80500000Y-58500000D03*
D13*
X77650000Y-54925000D03*
X77650000Y-55575000D03*
X77650000Y-56225000D03*
X77650000Y-56875000D03*
X77650000Y-57525000D03*
X77650000Y-58175000D03*
X77650000Y-58825000D03*
X77650000Y-59475000D03*
X77650000Y-60125000D03*
X77650000Y-60775000D03*
X77650000Y-61425000D03*
X77650000Y-62075000D03*
X83350000Y-62075000D03*
X83350000Y-61425000D03*
X83350000Y-60775000D03*
X83350000Y-60125000D03*
X83350000Y-59475000D03*
X83350000Y-58825000D03*
X83350000Y-58175000D03*
X83350000Y-57525000D03*
X83350000Y-56875000D03*
X83350000Y-56225000D03*
X83350000Y-55575000D03*
X83350000Y-54925000D03*
G04 #@! TD*
D12*
G04 #@! TO.C,U16*
X108000000Y-58500000D03*
D13*
X105150000Y-54925000D03*
X105150000Y-55575000D03*
X105150000Y-56225000D03*
X105150000Y-56875000D03*
X105150000Y-57525000D03*
X105150000Y-58175000D03*
X105150000Y-58825000D03*
X105150000Y-59475000D03*
X105150000Y-60125000D03*
X105150000Y-60775000D03*
X105150000Y-61425000D03*
X105150000Y-62075000D03*
X110850000Y-62075000D03*
X110850000Y-61425000D03*
X110850000Y-60775000D03*
X110850000Y-60125000D03*
X110850000Y-59475000D03*
X110850000Y-58825000D03*
X110850000Y-58175000D03*
X110850000Y-57525000D03*
X110850000Y-56875000D03*
X110850000Y-56225000D03*
X110850000Y-55575000D03*
X110850000Y-54925000D03*
G04 #@! TD*
D12*
G04 #@! TO.C,U15*
X135500000Y-58500000D03*
D13*
X132650000Y-54925000D03*
X132650000Y-55575000D03*
X132650000Y-56225000D03*
X132650000Y-56875000D03*
X132650000Y-57525000D03*
X132650000Y-58175000D03*
X132650000Y-58825000D03*
X132650000Y-59475000D03*
X132650000Y-60125000D03*
X132650000Y-60775000D03*
X132650000Y-61425000D03*
X132650000Y-62075000D03*
X138350000Y-62075000D03*
X138350000Y-61425000D03*
X138350000Y-60775000D03*
X138350000Y-60125000D03*
X138350000Y-59475000D03*
X138350000Y-58825000D03*
X138350000Y-58175000D03*
X138350000Y-57525000D03*
X138350000Y-56875000D03*
X138350000Y-56225000D03*
X138350000Y-55575000D03*
X138350000Y-54925000D03*
G04 #@! TD*
D14*
G04 #@! TO.C,U9*
X85200000Y-77715000D03*
X85200000Y-76445000D03*
X85200000Y-75175000D03*
X85200000Y-73905000D03*
X85200000Y-72635000D03*
X85200000Y-71365000D03*
X85200000Y-70095000D03*
X85200000Y-68825000D03*
X85200000Y-67555000D03*
X85200000Y-66285000D03*
X75800000Y-66285000D03*
X75800000Y-67555000D03*
X75800000Y-68825000D03*
X75800000Y-70095000D03*
X75800000Y-71365000D03*
X75800000Y-72635000D03*
X75800000Y-73905000D03*
X75800000Y-75175000D03*
X75800000Y-76445000D03*
X75800000Y-77715000D03*
G04 #@! TD*
D12*
G04 #@! TO.C,U8*
X163000000Y-58500000D03*
D13*
X160150000Y-54925000D03*
X160150000Y-55575000D03*
X160150000Y-56225000D03*
X160150000Y-56875000D03*
X160150000Y-57525000D03*
X160150000Y-58175000D03*
X160150000Y-58825000D03*
X160150000Y-59475000D03*
X160150000Y-60125000D03*
X160150000Y-60775000D03*
X160150000Y-61425000D03*
X160150000Y-62075000D03*
X165850000Y-62075000D03*
X165850000Y-61425000D03*
X165850000Y-60775000D03*
X165850000Y-60125000D03*
X165850000Y-59475000D03*
X165850000Y-58825000D03*
X165850000Y-58175000D03*
X165850000Y-57525000D03*
X165850000Y-56875000D03*
X165850000Y-56225000D03*
X165850000Y-55575000D03*
X165850000Y-54925000D03*
G04 #@! TD*
D12*
G04 #@! TO.C,U7*
X190500000Y-58500000D03*
D13*
X187650000Y-54925000D03*
X187650000Y-55575000D03*
X187650000Y-56225000D03*
X187650000Y-56875000D03*
X187650000Y-57525000D03*
X187650000Y-58175000D03*
X187650000Y-58825000D03*
X187650000Y-59475000D03*
X187650000Y-60125000D03*
X187650000Y-60775000D03*
X187650000Y-61425000D03*
X187650000Y-62075000D03*
X193350000Y-62075000D03*
X193350000Y-61425000D03*
X193350000Y-60775000D03*
X193350000Y-60125000D03*
X193350000Y-59475000D03*
X193350000Y-58825000D03*
X193350000Y-58175000D03*
X193350000Y-57525000D03*
X193350000Y-56875000D03*
X193350000Y-56225000D03*
X193350000Y-55575000D03*
X193350000Y-54925000D03*
G04 #@! TD*
D12*
G04 #@! TO.C,U6*
X218000000Y-58500000D03*
D13*
X215150000Y-54925000D03*
X215150000Y-55575000D03*
X215150000Y-56225000D03*
X215150000Y-56875000D03*
X215150000Y-57525000D03*
X215150000Y-58175000D03*
X215150000Y-58825000D03*
X215150000Y-59475000D03*
X215150000Y-60125000D03*
X215150000Y-60775000D03*
X215150000Y-61425000D03*
X215150000Y-62075000D03*
X220850000Y-62075000D03*
X220850000Y-61425000D03*
X220850000Y-60775000D03*
X220850000Y-60125000D03*
X220850000Y-59475000D03*
X220850000Y-58825000D03*
X220850000Y-58175000D03*
X220850000Y-57525000D03*
X220850000Y-56875000D03*
X220850000Y-56225000D03*
X220850000Y-55575000D03*
X220850000Y-54925000D03*
G04 #@! TD*
D12*
G04 #@! TO.C,U5*
X245500000Y-58500000D03*
D13*
X242650000Y-54925000D03*
X242650000Y-55575000D03*
X242650000Y-56225000D03*
X242650000Y-56875000D03*
X242650000Y-57525000D03*
X242650000Y-58175000D03*
X242650000Y-58825000D03*
X242650000Y-59475000D03*
X242650000Y-60125000D03*
X242650000Y-60775000D03*
X242650000Y-61425000D03*
X242650000Y-62075000D03*
X248350000Y-62075000D03*
X248350000Y-61425000D03*
X248350000Y-60775000D03*
X248350000Y-60125000D03*
X248350000Y-59475000D03*
X248350000Y-58825000D03*
X248350000Y-58175000D03*
X248350000Y-57525000D03*
X248350000Y-56875000D03*
X248350000Y-56225000D03*
X248350000Y-55575000D03*
X248350000Y-54925000D03*
G04 #@! TD*
D15*
G04 #@! TO.C,R9*
X57800000Y-55550000D03*
X57800000Y-54050000D03*
G04 #@! TD*
G04 #@! TO.C,R8*
X85300000Y-55550000D03*
X85300000Y-54050000D03*
G04 #@! TD*
G04 #@! TO.C,R7*
X112800000Y-55550000D03*
X112800000Y-54050000D03*
G04 #@! TD*
D16*
G04 #@! TO.C,R6*
X140050000Y-55800000D03*
X141550000Y-55800000D03*
G04 #@! TD*
D15*
G04 #@! TO.C,R5*
X240400000Y-49650000D03*
X240400000Y-51150000D03*
G04 #@! TD*
G04 #@! TO.C,R4*
X167800000Y-55550000D03*
X167800000Y-54050000D03*
G04 #@! TD*
G04 #@! TO.C,R3*
X195300000Y-55550000D03*
X195300000Y-54050000D03*
G04 #@! TD*
G04 #@! TO.C,R2*
X222800000Y-55550000D03*
X222800000Y-54050000D03*
G04 #@! TD*
G04 #@! TO.C,R1*
X250300000Y-55550000D03*
X250300000Y-54050000D03*
G04 #@! TD*
D17*
G04 #@! TO.C,C11*
X54350000Y-53200000D03*
X55850000Y-53200000D03*
G04 #@! TD*
G04 #@! TO.C,C10*
X81850000Y-53200000D03*
X83350000Y-53200000D03*
G04 #@! TD*
G04 #@! TO.C,C9*
X109350000Y-53200000D03*
X110850000Y-53200000D03*
G04 #@! TD*
D18*
G04 #@! TO.C,C8*
X140600000Y-52450000D03*
X140600000Y-53950000D03*
G04 #@! TD*
D17*
G04 #@! TO.C,C7*
X244050000Y-52000000D03*
X242550000Y-52000000D03*
G04 #@! TD*
G04 #@! TO.C,C6*
X73450000Y-77700000D03*
X71950000Y-77700000D03*
G04 #@! TD*
D19*
G04 #@! TO.C,C5*
X141975000Y-45400000D03*
X148325000Y-45400000D03*
G04 #@! TD*
D17*
G04 #@! TO.C,C4*
X164350000Y-53200000D03*
X165850000Y-53200000D03*
G04 #@! TD*
G04 #@! TO.C,C3*
X191850000Y-53200000D03*
X193350000Y-53200000D03*
G04 #@! TD*
G04 #@! TO.C,C2*
X219350000Y-53200000D03*
X220850000Y-53200000D03*
G04 #@! TD*
G04 #@! TO.C,C1*
X246850000Y-53200000D03*
X248350000Y-53200000D03*
G04 #@! TD*
M02*
