G04 #@! TF.GenerationSoftware,KiCad,Pcbnew,(6.0.0-rc1-dev-557-ge985f797c)*
G04 #@! TF.CreationDate,2021-03-05T01:29:39+01:00*
G04 #@! TF.ProjectId,16seg_Module,31367365675F4D6F64756C652E6B6963,1.0*
G04 #@! TF.SameCoordinates,Original*
G04 #@! TF.FileFunction,Legend,Bot*
G04 #@! TF.FilePolarity,Positive*
%FSLAX46Y46*%
G04 Gerber Fmt 4.6, Leading zero omitted, Abs format (unit mm)*
G04 Created by KiCad (PCBNEW (6.0.0-rc1-dev-557-ge985f797c)) date 03/05/21 01:29:39*
%MOMM*%
%LPD*%
G01*
G04 APERTURE LIST*
%ADD10C,0.100000*%
%ADD11C,0.150000*%
G04 APERTURE END LIST*
D10*
G04 #@! TO.C,U14*
X66750000Y-80692304D02*
X66750000Y-40692304D01*
X39250000Y-80692304D02*
X66750000Y-80692304D01*
X39250000Y-40692304D02*
X39250000Y-80692304D01*
X66750000Y-40692304D02*
X39250000Y-40692304D01*
G04 #@! TO.C,U13*
X94250000Y-80692304D02*
X94250000Y-40692304D01*
X66750000Y-80692304D02*
X94250000Y-80692304D01*
X66750000Y-40692304D02*
X66750000Y-80692304D01*
X94250000Y-40692304D02*
X66750000Y-40692304D01*
G04 #@! TO.C,U12*
X121750000Y-80692304D02*
X121750000Y-40692304D01*
X94250000Y-80692304D02*
X121750000Y-80692304D01*
X94250000Y-40692304D02*
X94250000Y-80692304D01*
X121750000Y-40692304D02*
X94250000Y-40692304D01*
G04 #@! TO.C,U11*
X149250000Y-80692304D02*
X149250000Y-40692304D01*
X121750000Y-80692304D02*
X149250000Y-80692304D01*
X121750000Y-40692304D02*
X121750000Y-80692304D01*
X149250000Y-40692304D02*
X121750000Y-40692304D01*
G04 #@! TO.C,U4*
X176750000Y-80692304D02*
X176750000Y-40692304D01*
X149250000Y-80692304D02*
X176750000Y-80692304D01*
X149250000Y-40692304D02*
X149250000Y-80692304D01*
X176750000Y-40692304D02*
X149250000Y-40692304D01*
G04 #@! TO.C,U3*
X204250000Y-80692304D02*
X204250000Y-40692304D01*
X176750000Y-80692304D02*
X204250000Y-80692304D01*
X176750000Y-40692304D02*
X176750000Y-80692304D01*
X204250000Y-40692304D02*
X176750000Y-40692304D01*
G04 #@! TO.C,U2*
X231750000Y-80692304D02*
X231750000Y-40692304D01*
X204250000Y-80692304D02*
X231750000Y-80692304D01*
X204250000Y-40692304D02*
X204250000Y-80692304D01*
X231750000Y-40692304D02*
X204250000Y-40692304D01*
G04 #@! TO.C,U1*
X259250000Y-80692304D02*
X259250000Y-40692304D01*
X231750000Y-80692304D02*
X259250000Y-80692304D01*
X231750000Y-40692304D02*
X231750000Y-80692304D01*
X259250000Y-40692304D02*
X231750000Y-40692304D01*
G04 #@! TO.C,U14*
D11*
X64414404Y-48202380D02*
X64414404Y-49011904D01*
X64366785Y-49107142D01*
X64319166Y-49154761D01*
X64223928Y-49202380D01*
X64033452Y-49202380D01*
X63938214Y-49154761D01*
X63890595Y-49107142D01*
X63842976Y-49011904D01*
X63842976Y-48202380D01*
X62842976Y-49202380D02*
X63414404Y-49202380D01*
X63128690Y-49202380D02*
X63128690Y-48202380D01*
X63223928Y-48345238D01*
X63319166Y-48440476D01*
X63414404Y-48488095D01*
X61985833Y-48535714D02*
X61985833Y-49202380D01*
X62223928Y-48154761D02*
X62462023Y-48869047D01*
X61842976Y-48869047D01*
G04 #@! TO.C,U13*
X91914404Y-48202380D02*
X91914404Y-49011904D01*
X91866785Y-49107142D01*
X91819166Y-49154761D01*
X91723928Y-49202380D01*
X91533452Y-49202380D01*
X91438214Y-49154761D01*
X91390595Y-49107142D01*
X91342976Y-49011904D01*
X91342976Y-48202380D01*
X90342976Y-49202380D02*
X90914404Y-49202380D01*
X90628690Y-49202380D02*
X90628690Y-48202380D01*
X90723928Y-48345238D01*
X90819166Y-48440476D01*
X90914404Y-48488095D01*
X90009642Y-48202380D02*
X89390595Y-48202380D01*
X89723928Y-48583333D01*
X89581071Y-48583333D01*
X89485833Y-48630952D01*
X89438214Y-48678571D01*
X89390595Y-48773809D01*
X89390595Y-49011904D01*
X89438214Y-49107142D01*
X89485833Y-49154761D01*
X89581071Y-49202380D01*
X89866785Y-49202380D01*
X89962023Y-49154761D01*
X90009642Y-49107142D01*
G04 #@! TO.C,U12*
X119414404Y-48202380D02*
X119414404Y-49011904D01*
X119366785Y-49107142D01*
X119319166Y-49154761D01*
X119223928Y-49202380D01*
X119033452Y-49202380D01*
X118938214Y-49154761D01*
X118890595Y-49107142D01*
X118842976Y-49011904D01*
X118842976Y-48202380D01*
X117842976Y-49202380D02*
X118414404Y-49202380D01*
X118128690Y-49202380D02*
X118128690Y-48202380D01*
X118223928Y-48345238D01*
X118319166Y-48440476D01*
X118414404Y-48488095D01*
X117462023Y-48297619D02*
X117414404Y-48250000D01*
X117319166Y-48202380D01*
X117081071Y-48202380D01*
X116985833Y-48250000D01*
X116938214Y-48297619D01*
X116890595Y-48392857D01*
X116890595Y-48488095D01*
X116938214Y-48630952D01*
X117509642Y-49202380D01*
X116890595Y-49202380D01*
G04 #@! TO.C,U11*
X146914404Y-48202380D02*
X146914404Y-49011904D01*
X146866785Y-49107142D01*
X146819166Y-49154761D01*
X146723928Y-49202380D01*
X146533452Y-49202380D01*
X146438214Y-49154761D01*
X146390595Y-49107142D01*
X146342976Y-49011904D01*
X146342976Y-48202380D01*
X145342976Y-49202380D02*
X145914404Y-49202380D01*
X145628690Y-49202380D02*
X145628690Y-48202380D01*
X145723928Y-48345238D01*
X145819166Y-48440476D01*
X145914404Y-48488095D01*
X144390595Y-49202380D02*
X144962023Y-49202380D01*
X144676309Y-49202380D02*
X144676309Y-48202380D01*
X144771547Y-48345238D01*
X144866785Y-48440476D01*
X144962023Y-48488095D01*
G04 #@! TO.C,U4*
X173914404Y-48202380D02*
X173914404Y-49011904D01*
X173866785Y-49107142D01*
X173819166Y-49154761D01*
X173723928Y-49202380D01*
X173533452Y-49202380D01*
X173438214Y-49154761D01*
X173390595Y-49107142D01*
X173342976Y-49011904D01*
X173342976Y-48202380D01*
X172438214Y-48535714D02*
X172438214Y-49202380D01*
X172676309Y-48154761D02*
X172914404Y-48869047D01*
X172295357Y-48869047D01*
G04 #@! TO.C,U3*
X201414404Y-48202380D02*
X201414404Y-49011904D01*
X201366785Y-49107142D01*
X201319166Y-49154761D01*
X201223928Y-49202380D01*
X201033452Y-49202380D01*
X200938214Y-49154761D01*
X200890595Y-49107142D01*
X200842976Y-49011904D01*
X200842976Y-48202380D01*
X200462023Y-48202380D02*
X199842976Y-48202380D01*
X200176309Y-48583333D01*
X200033452Y-48583333D01*
X199938214Y-48630952D01*
X199890595Y-48678571D01*
X199842976Y-48773809D01*
X199842976Y-49011904D01*
X199890595Y-49107142D01*
X199938214Y-49154761D01*
X200033452Y-49202380D01*
X200319166Y-49202380D01*
X200414404Y-49154761D01*
X200462023Y-49107142D01*
G04 #@! TO.C,U2*
X228914404Y-48202380D02*
X228914404Y-49011904D01*
X228866785Y-49107142D01*
X228819166Y-49154761D01*
X228723928Y-49202380D01*
X228533452Y-49202380D01*
X228438214Y-49154761D01*
X228390595Y-49107142D01*
X228342976Y-49011904D01*
X228342976Y-48202380D01*
X227914404Y-48297619D02*
X227866785Y-48250000D01*
X227771547Y-48202380D01*
X227533452Y-48202380D01*
X227438214Y-48250000D01*
X227390595Y-48297619D01*
X227342976Y-48392857D01*
X227342976Y-48488095D01*
X227390595Y-48630952D01*
X227962023Y-49202380D01*
X227342976Y-49202380D01*
G04 #@! TO.C,U1*
X256414404Y-48202380D02*
X256414404Y-49011904D01*
X256366785Y-49107142D01*
X256319166Y-49154761D01*
X256223928Y-49202380D01*
X256033452Y-49202380D01*
X255938214Y-49154761D01*
X255890595Y-49107142D01*
X255842976Y-49011904D01*
X255842976Y-48202380D01*
X254842976Y-49202380D02*
X255414404Y-49202380D01*
X255128690Y-49202380D02*
X255128690Y-48202380D01*
X255223928Y-48345238D01*
X255319166Y-48440476D01*
X255414404Y-48488095D01*
G04 #@! TD*
M02*
