M48
;DRILL file {KiCad (6.0.0-rc1-dev-557-ge985f797c)} date 03/05/21 01:29:41
;FORMAT={-:-/ absolute / metric / decimal}
FMAT,2
METRIC,TZ
T1C0.300
T2C0.550
T3C1.800
%
G90
G05
M71
T1
X46.1Y-53.2
X48.55Y-62.35
X49.05Y-55.35
X49.05Y-56.8
X51.15Y-56.05
X51.25Y-57.5
X51.25Y-58.2
X51.25Y-58.9
X51.25Y-59.6
X51.25Y-60.3
X51.25Y-61.
X54.75Y-58.2
X54.75Y-58.9
X54.75Y-59.6
X54.75Y-60.3
X54.75Y-61.
X54.9Y-56.2
X55.85Y-52.
X57.05Y-56.8
X73.45Y-76.1
X73.6Y-53.2
X76.Y-54.55
X76.05Y-62.35
X76.55Y-55.35
X76.55Y-56.8
X77.55Y-63.2
X78.65Y-56.05
X78.75Y-57.5
X78.75Y-58.5
X78.75Y-60.3
X78.75Y-61.
X82.25Y-58.2
X82.25Y-58.9
X82.25Y-59.6
X82.25Y-60.3
X82.25Y-61.
X82.4Y-56.2
X83.35Y-52.
X83.55Y-72.65
X83.55Y-73.9
X84.55Y-56.8
X86.2Y-63.65
X86.7Y-55.3
X87.15Y-75.15
X101.1Y-53.2
X103.5Y-54.55
X103.55Y-62.35
X104.05Y-55.35
X104.05Y-56.8
X106.15Y-56.05
X106.25Y-58.2
X106.25Y-58.9
X106.25Y-59.6
X106.25Y-60.3
X106.25Y-61.
X109.75Y-58.2
X109.75Y-58.9
X109.75Y-59.6
X109.75Y-60.3
X109.75Y-61.
X109.9Y-56.2
X110.85Y-52.
X112.05Y-56.8
X131.Y-54.55
X131.05Y-62.35
X131.55Y-55.35
X131.55Y-56.8
X133.65Y-56.05
X133.75Y-58.2
X133.75Y-58.9
X133.75Y-59.6
X133.75Y-60.3
X133.75Y-61.
X137.25Y-58.2
X137.25Y-58.9
X137.25Y-59.6
X137.25Y-60.3
X137.25Y-61.
X137.4Y-56.2
X137.48Y-52.63
X139.55Y-56.8
X140.95Y-56.
X141.45Y-52.45
X156.1Y-53.2
X158.5Y-54.55
X158.55Y-62.35
X159.05Y-55.35
X159.05Y-56.8
X161.15Y-56.05
X161.25Y-58.2
X161.25Y-58.9
X161.25Y-59.6
X161.25Y-60.3
X161.25Y-61.
X164.75Y-58.2
X164.75Y-58.9
X164.75Y-59.6
X164.75Y-60.3
X164.75Y-61.
X164.9Y-56.2
X165.85Y-52.
X167.05Y-56.8
X183.6Y-53.2
X186.Y-54.55
X186.05Y-62.35
X186.55Y-55.35
X186.55Y-56.8
X188.65Y-56.05
X188.75Y-58.2
X188.75Y-58.9
X188.75Y-59.6
X188.75Y-60.3
X188.75Y-61.
X192.25Y-58.2
X192.25Y-58.9
X192.25Y-59.6
X192.25Y-60.3
X192.25Y-61.
X192.4Y-56.2
X193.35Y-52.
X194.55Y-56.8
X211.1Y-53.2
X213.5Y-54.55
X213.55Y-62.35
X214.05Y-55.35
X214.05Y-56.8
X216.15Y-56.05
X216.25Y-58.2
X216.25Y-58.9
X216.25Y-59.6
X216.25Y-60.3
X216.25Y-61.
X219.75Y-58.2
X219.75Y-58.9
X219.75Y-59.6
X219.75Y-60.3
X219.75Y-61.
X219.9Y-56.2
X220.85Y-52.
X222.05Y-56.8
X236.Y-45.75
X236.8Y-46.75
X237.85Y-47.7
X238.65Y-48.55
X241.Y-54.55
X241.05Y-62.35
X241.5Y-55.3
X241.55Y-56.8
X242.55Y-53.2
X243.65Y-56.05
X243.75Y-60.3
X243.75Y-61.
X244.1Y-49.6
X244.9Y-49.6
X244.9Y-71.5
X245.7Y-49.6
X245.9Y-69.3
X246.35Y-47.
X246.5Y-49.6
X246.85Y-46.3
X247.Y-47.7
X247.2Y-45.5
X247.25Y-58.2
X247.25Y-58.9
X247.25Y-59.6
X247.25Y-60.3
X247.25Y-61.
X247.4Y-56.2
X248.35Y-52.
X249.55Y-56.8
X252.4Y-71.5
T2
X235.34Y-50.532
X235.34Y-53.072
X235.34Y-55.612
X235.34Y-58.152
X235.34Y-60.692
X235.34Y-63.232
X235.34Y-65.772
X235.34Y-68.312
X235.34Y-70.852
X255.66Y-50.532
X255.66Y-53.072
X255.66Y-55.612
X255.66Y-58.152
X255.66Y-60.692
X255.66Y-63.232
X255.66Y-65.772
X255.66Y-68.312
X255.66Y-70.852
X180.34Y-50.532
X180.34Y-53.072
X180.34Y-55.612
X180.34Y-58.152
X180.34Y-60.692
X180.34Y-63.232
X180.34Y-65.772
X180.34Y-68.312
X180.34Y-70.852
X200.66Y-50.532
X200.66Y-53.072
X200.66Y-55.612
X200.66Y-58.152
X200.66Y-60.692
X200.66Y-63.232
X200.66Y-65.772
X200.66Y-68.312
X200.66Y-70.852
X125.34Y-50.532
X125.34Y-53.072
X125.34Y-55.612
X125.34Y-58.152
X125.34Y-60.692
X125.34Y-63.232
X125.34Y-65.772
X125.34Y-68.312
X125.34Y-70.852
X145.66Y-50.532
X145.66Y-53.072
X145.66Y-55.612
X145.66Y-58.152
X145.66Y-60.692
X145.66Y-63.232
X145.66Y-65.772
X145.66Y-68.312
X145.66Y-70.852
X70.34Y-50.532
X70.34Y-53.072
X70.34Y-55.612
X70.34Y-58.152
X70.34Y-60.692
X70.34Y-63.232
X70.34Y-65.772
X70.34Y-68.312
X70.34Y-70.852
X90.66Y-50.532
X90.66Y-53.072
X90.66Y-55.612
X90.66Y-58.152
X90.66Y-60.692
X90.66Y-63.232
X90.66Y-65.772
X90.66Y-68.312
X90.66Y-70.852
X42.84Y-50.532
X42.84Y-53.072
X42.84Y-55.612
X42.84Y-58.152
X42.84Y-60.692
X42.84Y-63.232
X42.84Y-65.772
X42.84Y-68.312
X42.84Y-70.852
X63.16Y-50.532
X63.16Y-53.072
X63.16Y-55.612
X63.16Y-58.152
X63.16Y-60.692
X63.16Y-63.232
X63.16Y-65.772
X63.16Y-68.312
X63.16Y-70.852
X207.84Y-50.532
X207.84Y-53.072
X207.84Y-55.612
X207.84Y-58.152
X207.84Y-60.692
X207.84Y-63.232
X207.84Y-65.772
X207.84Y-68.312
X207.84Y-70.852
X228.16Y-50.532
X228.16Y-53.072
X228.16Y-55.612
X228.16Y-58.152
X228.16Y-60.692
X228.16Y-63.232
X228.16Y-65.772
X228.16Y-68.312
X228.16Y-70.852
X97.84Y-50.532
X97.84Y-53.072
X97.84Y-55.612
X97.84Y-58.152
X97.84Y-60.692
X97.84Y-63.232
X97.84Y-65.772
X97.84Y-68.312
X97.84Y-70.852
X118.16Y-50.532
X118.16Y-53.072
X118.16Y-55.612
X118.16Y-58.152
X118.16Y-60.692
X118.16Y-63.232
X118.16Y-65.772
X118.16Y-68.312
X118.16Y-70.852
X152.84Y-50.532
X152.84Y-53.072
X152.84Y-55.612
X152.84Y-58.152
X152.84Y-60.692
X152.84Y-63.232
X152.84Y-65.772
X152.84Y-68.312
X152.84Y-70.852
X173.16Y-50.532
X173.16Y-53.072
X173.16Y-55.612
X173.16Y-58.152
X173.16Y-60.692
X173.16Y-63.232
X173.16Y-65.772
X173.16Y-68.312
X173.16Y-70.852
T3
X133.52Y-48.
X137.48Y-48.
T0
M30
